<?xml version="1.0" encoding="utf-8" standalone="no"?>
<!DOCTYPE svg PUBLIC "-//W3C//DTD SVG 1.1//EN"
  "http://www.w3.org/Graphics/SVG/1.1/DTD/svg11.dtd">
<svg xmlns:xlink="http://www.w3.org/1999/xlink" width="593.285288pt" height="254.579344pt" viewBox="0 0 593.285288 254.579344" xmlns="http://www.w3.org/2000/svg" version="1.1">
 <metadata>
  <rdf:RDF xmlns:dc="http://purl.org/dc/elements/1.1/" xmlns:cc="http://creativecommons.org/ns#" xmlns:rdf="http://www.w3.org/1999/02/22-rdf-syntax-ns#">
   <cc:Work>
    <dc:type rdf:resource="http://purl.org/dc/dcmitype/StillImage"/>
    <dc:date>2026-05-13T20:30:43.491663</dc:date>
    <dc:format>image/svg+xml</dc:format>
    <dc:creator>
     <cc:Agent>
      <dc:title>Matplotlib v3.10.0, https://matplotlib.org/</dc:title>
     </cc:Agent>
    </dc:creator>
   </cc:Work>
  </rdf:RDF>
 </metadata>
 <defs>
  <style type="text/css">*{stroke-linejoin: round; stroke-linecap: butt}</style>
 </defs>
 <g id="figure_1">
  <g id="patch_1">
   <path d="M 0 254.579344 
L 593.285288 254.579344 
L 593.285288 0 
L 0 0 
z
" style="fill: #ffffff"/>
  </g>
  <g id="axes_1">
   <g id="patch_2">
    <path d="M 51.246563 217.872 
L 419.526562 217.872 
L 419.526562 7.2 
L 51.246563 7.2 
z
" style="fill: #ffffff"/>
   </g>
   <g id="matplotlib.axis_1">
    <g id="xtick_1">
     <g id="line2d_1">
      <path d="M 67.986563 217.872 
L 67.986563 7.2 
" clip-path="url(#pc082e6ec66)" style="fill: none; stroke: #b0b0b0; stroke-opacity: 0.25; stroke-width: 0.8; stroke-linecap: square"/>
     </g>
     <g id="line2d_2">
      <defs>
       <path id="m9feadb0ada" d="M 0 0 
L 0 -3.5 
" style="stroke: #000000; stroke-width: 1.2"/>
      </defs>
      <g>
       <use xlink:href="#m9feadb0ada" x="67.986563" y="217.872" style="stroke: #000000; stroke-width: 1.2"/>
      </g>
     </g>
     <g id="text_1">
      <!-- 0 -->
      <g transform="translate(64.90793 229.765437) scale(0.105 -0.105)">
       <defs>
        <path id="MicrosoftYaHei-30" d="M 284 2325 
Q 284 3606 709 4264 
Q 1134 4922 1941 4922 
Q 3478 4922 3478 2441 
Q 3478 1216 3045 567 
Q 2613 -81 1831 -81 
Q 1094 -81 689 534 
Q 284 1150 284 2325 
z
M 909 2353 
Q 909 425 1888 425 
Q 2850 425 2850 2384 
Q 2850 4413 1906 4413 
Q 909 4413 909 2353 
z
" transform="scale(0.015625)"/>
       </defs>
       <use xlink:href="#MicrosoftYaHei-30"/>
      </g>
     </g>
    </g>
    <g id="xtick_2">
     <g id="line2d_3">
      <path d="M 142.999838 217.872 
L 142.999838 7.2 
" clip-path="url(#pc082e6ec66)" style="fill: none; stroke: #b0b0b0; stroke-opacity: 0.25; stroke-width: 0.8; stroke-linecap: square"/>
     </g>
     <g id="line2d_4">
      <g>
       <use xlink:href="#m9feadb0ada" x="142.999838" y="217.872" style="stroke: #000000; stroke-width: 1.2"/>
      </g>
     </g>
     <g id="text_2">
      <!-- 100 -->
      <g transform="translate(133.763939 229.765437) scale(0.105 -0.105)">
       <defs>
        <path id="MicrosoftYaHei-31" d="M 1781 0 
L 1781 4141 
Q 1638 3997 1295 3819 
Q 953 3641 663 3569 
L 663 4169 
Q 1047 4275 1484 4508 
Q 1922 4741 2156 4947 
L 2388 4947 
L 2388 0 
L 1781 0 
z
" transform="scale(0.015625)"/>
       </defs>
       <use xlink:href="#MicrosoftYaHei-31"/>
       <use xlink:href="#MicrosoftYaHei-30" transform="translate(58.642578 0)"/>
       <use xlink:href="#MicrosoftYaHei-30" transform="translate(117.285156 0)"/>
      </g>
     </g>
    </g>
    <g id="xtick_3">
     <g id="line2d_5">
      <path d="M 218.013113 217.872 
L 218.013113 7.2 
" clip-path="url(#pc082e6ec66)" style="fill: none; stroke: #b0b0b0; stroke-opacity: 0.25; stroke-width: 0.8; stroke-linecap: square"/>
     </g>
     <g id="line2d_6">
      <g>
       <use xlink:href="#m9feadb0ada" x="218.013113" y="217.872" style="stroke: #000000; stroke-width: 1.2"/>
      </g>
     </g>
     <g id="text_3">
      <!-- 200 -->
      <g transform="translate(208.777214 229.765437) scale(0.105 -0.105)">
       <defs>
        <path id="MicrosoftYaHei-32" d="M 2666 3572 
Q 2666 3963 2419 4186 
Q 2172 4409 1747 4409 
Q 1447 4409 1140 4256 
Q 834 4103 569 3819 
L 569 4413 
Q 806 4659 1107 4790 
Q 1409 4922 1816 4922 
Q 2472 4922 2872 4570 
Q 3272 4219 3272 3619 
Q 3272 3084 3026 2693 
Q 2781 2303 2188 1894 
Q 1581 1475 1376 1294 
Q 1172 1113 1090 947 
Q 1009 781 1009 544 
L 3416 544 
L 3416 0 
L 372 0 
L 372 241 
Q 372 659 486 951 
Q 600 1244 862 1520 
Q 1125 1797 1681 2184 
Q 2250 2584 2458 2886 
Q 2666 3188 2666 3572 
z
" transform="scale(0.015625)"/>
       </defs>
       <use xlink:href="#MicrosoftYaHei-32"/>
       <use xlink:href="#MicrosoftYaHei-30" transform="translate(58.642578 0)"/>
       <use xlink:href="#MicrosoftYaHei-30" transform="translate(117.285156 0)"/>
      </g>
     </g>
    </g>
    <g id="xtick_4">
     <g id="line2d_7">
      <path d="M 293.026388 217.872 
L 293.026388 7.2 
" clip-path="url(#pc082e6ec66)" style="fill: none; stroke: #b0b0b0; stroke-opacity: 0.25; stroke-width: 0.8; stroke-linecap: square"/>
     </g>
     <g id="line2d_8">
      <g>
       <use xlink:href="#m9feadb0ada" x="293.026388" y="217.872" style="stroke: #000000; stroke-width: 1.2"/>
      </g>
     </g>
     <g id="text_4">
      <!-- 300 -->
      <g transform="translate(283.79049 229.765437) scale(0.105 -0.105)">
       <defs>
        <path id="MicrosoftYaHei-33" d="M 447 809 
Q 944 425 1569 425 
Q 2069 425 2361 670 
Q 2653 916 2653 1328 
Q 2653 2247 1338 2247 
L 934 2247 
L 934 2753 
L 1319 2753 
Q 2484 2753 2484 3616 
Q 2484 4413 1594 4413 
Q 1084 4413 634 4069 
L 634 4647 
Q 1109 4922 1744 4922 
Q 2363 4922 2738 4598 
Q 3113 4275 3113 3759 
Q 3113 2809 2144 2538 
L 2144 2525 
Q 2669 2469 2973 2155 
Q 3278 1841 3278 1372 
Q 3278 719 2808 319 
Q 2338 -81 1556 -81 
Q 869 -81 447 175 
L 447 809 
z
" transform="scale(0.015625)"/>
       </defs>
       <use xlink:href="#MicrosoftYaHei-33"/>
       <use xlink:href="#MicrosoftYaHei-30" transform="translate(58.642578 0)"/>
       <use xlink:href="#MicrosoftYaHei-30" transform="translate(117.285156 0)"/>
      </g>
     </g>
    </g>
    <g id="xtick_5">
     <g id="line2d_9">
      <path d="M 368.039663 217.872 
L 368.039663 7.2 
" clip-path="url(#pc082e6ec66)" style="fill: none; stroke: #b0b0b0; stroke-opacity: 0.25; stroke-width: 0.8; stroke-linecap: square"/>
     </g>
     <g id="line2d_10">
      <g>
       <use xlink:href="#m9feadb0ada" x="368.039663" y="217.872" style="stroke: #000000; stroke-width: 1.2"/>
      </g>
     </g>
     <g id="text_5">
      <!-- 400 -->
      <g transform="translate(358.803765 229.765437) scale(0.105 -0.105)">
       <defs>
        <path id="MicrosoftYaHei-34" d="M 2906 4841 
L 2906 1644 
L 3631 1644 
L 3631 1138 
L 2906 1138 
L 2906 0 
L 2313 0 
L 2313 1138 
L 53 1138 
L 53 1616 
Q 656 2294 1265 3178 
Q 1875 4063 2272 4841 
L 2906 4841 
z
M 741 1644 
L 2313 1644 
L 2313 3950 
Q 1988 3366 1616 2817 
Q 1244 2269 741 1644 
z
" transform="scale(0.015625)"/>
       </defs>
       <use xlink:href="#MicrosoftYaHei-34"/>
       <use xlink:href="#MicrosoftYaHei-30" transform="translate(58.642578 0)"/>
       <use xlink:href="#MicrosoftYaHei-30" transform="translate(117.285156 0)"/>
      </g>
     </g>
    </g>
    <g id="text_6">
     <!-- Time (s) -->
     <g transform="translate(215.589961 244.769109) scale(0.105 -0.105)">
      <defs>
       <path id="MicrosoftYaHei-54" d="M 3550 4284 
L 2153 4284 
L 2153 0 
L 1525 0 
L 1525 4284 
L 134 4284 
L 134 4841 
L 3550 4841 
L 3550 4284 
z
" transform="scale(0.015625)"/>
       <path id="MicrosoftYaHei-69" d="M 472 4675 
Q 472 4838 583 4948 
Q 694 5059 856 5059 
Q 1022 5059 1136 4950 
Q 1250 4841 1250 4675 
Q 1250 4513 1136 4405 
Q 1022 4297 856 4297 
Q 691 4297 581 4405 
Q 472 4513 472 4675 
z
M 544 0 
L 544 3456 
L 1156 3456 
L 1156 0 
L 544 0 
z
" transform="scale(0.015625)"/>
       <path id="MicrosoftYaHei-6d" d="M 5522 0 
L 4909 0 
L 4909 1984 
Q 4909 2547 4734 2789 
Q 4559 3031 4159 3031 
Q 3822 3031 3581 2715 
Q 3341 2400 3341 1969 
L 3341 0 
L 2728 0 
L 2728 2047 
Q 2728 3031 1969 3031 
Q 1619 3031 1389 2731 
Q 1159 2431 1159 1966 
L 1159 0 
L 547 0 
L 547 3456 
L 1159 3456 
L 1159 2909 
L 1172 2909 
Q 1541 3538 2250 3538 
Q 2597 3538 2862 3347 
Q 3128 3156 3231 2831 
Q 3616 3538 4381 3538 
Q 5522 3538 5522 2131 
L 5522 0 
z
" transform="scale(0.015625)"/>
       <path id="MicrosoftYaHei-65" d="M 3363 1572 
L 944 1572 
Q 959 1019 1246 717 
Q 1534 416 2050 416 
Q 2631 416 3116 788 
L 3116 241 
Q 2659 -81 1906 -81 
Q 1156 -81 736 394 
Q 316 869 316 1713 
Q 316 2506 777 3022 
Q 1238 3538 1922 3538 
Q 2600 3538 2981 3102 
Q 3363 2666 3363 1881 
L 3363 1572 
z
M 2750 2063 
Q 2747 2531 2528 2787 
Q 2309 3044 1913 3044 
Q 1547 3044 1280 2772 
Q 1013 2500 944 2063 
L 2750 2063 
z
" transform="scale(0.015625)"/>
       <path id="MicrosoftYaHei-20" transform="scale(0.015625)"/>
       <path id="MicrosoftYaHei-28" d="M 1531 -1100 
Q 478 100 478 1847 
Q 478 3594 1531 4841 
L 2072 4841 
Q 1016 3544 1016 1853 
Q 1016 166 2066 -1100 
L 1531 -1100 
z
" transform="scale(0.015625)"/>
       <path id="MicrosoftYaHei-73" d="M 353 747 
Q 816 413 1350 413 
Q 2066 413 2066 881 
Q 2066 1081 1909 1211 
Q 1753 1341 1275 1519 
Q 700 1750 528 1976 
Q 356 2203 356 2525 
Q 356 2984 745 3261 
Q 1134 3538 1703 3538 
Q 2144 3538 2522 3384 
L 2522 2794 
Q 2134 3044 1644 3044 
Q 1350 3044 1165 2916 
Q 981 2788 981 2578 
Q 981 2372 1114 2256 
Q 1247 2141 1703 1959 
Q 2281 1744 2484 1512 
Q 2688 1281 2688 941 
Q 2688 466 2298 192 
Q 1909 -81 1291 -81 
Q 753 -81 353 122 
L 353 747 
z
" transform="scale(0.015625)"/>
       <path id="MicrosoftYaHei-29" d="M 78 -1100 
Q 1131 163 1131 1853 
Q 1131 3547 72 4841 
L 616 4841 
Q 1672 3603 1672 1847 
Q 1672 91 616 -1100 
L 78 -1100 
z
" transform="scale(0.015625)"/>
      </defs>
      <use xlink:href="#MicrosoftYaHei-54"/>
      <use xlink:href="#MicrosoftYaHei-69" transform="translate(57.324219 0)"/>
      <use xlink:href="#MicrosoftYaHei-6d" transform="translate(83.935547 0)"/>
      <use xlink:href="#MicrosoftYaHei-65" transform="translate(177.636719 0)"/>
      <use xlink:href="#MicrosoftYaHei-20" transform="translate(234.375 0)"/>
      <use xlink:href="#MicrosoftYaHei-28" transform="translate(263.964844 0)"/>
      <use xlink:href="#MicrosoftYaHei-73" transform="translate(297.363281 0)"/>
      <use xlink:href="#MicrosoftYaHei-29" transform="translate(343.652344 0)"/>
     </g>
    </g>
   </g>
   <g id="matplotlib.axis_2">
    <g id="ytick_1">
     <g id="line2d_11">
      <path d="M 51.246563 190.347235 
L 419.526562 190.347235 
" clip-path="url(#pc082e6ec66)" style="fill: none; stroke: #b0b0b0; stroke-opacity: 0.25; stroke-width: 0.8; stroke-linecap: square"/>
     </g>
     <g id="line2d_12">
      <defs>
       <path id="m292d9bc897" d="M 0 0 
L 3.5 0 
" style="stroke: #000000; stroke-width: 1.2"/>
      </defs>
      <g>
       <use xlink:href="#m292d9bc897" x="51.246563" y="190.347235" style="stroke: #000000; stroke-width: 1.2"/>
      </g>
     </g>
     <g id="text_7">
      <!-- -0.02 -->
      <g transform="translate(22.203672 194.543954) scale(0.105 -0.105)">
       <defs>
        <path id="MicrosoftYaHei-2d" d="M 2328 1681 
L 488 1681 
L 488 2153 
L 2328 2153 
L 2328 1681 
z
" transform="scale(0.015625)"/>
        <path id="MicrosoftYaHei-2e" d="M 372 322 
Q 372 491 487 606 
Q 603 722 775 722 
Q 950 722 1065 605 
Q 1181 488 1181 322 
Q 1181 159 1065 42 
Q 950 -75 772 -75 
Q 600 -75 486 42 
Q 372 159 372 322 
z
" transform="scale(0.015625)"/>
       </defs>
       <use xlink:href="#MicrosoftYaHei-2d"/>
       <use xlink:href="#MicrosoftYaHei-30" transform="translate(43.261719 0)"/>
       <use xlink:href="#MicrosoftYaHei-2e" transform="translate(101.904297 0)"/>
       <use xlink:href="#MicrosoftYaHei-30" transform="translate(125.976562 0)"/>
       <use xlink:href="#MicrosoftYaHei-32" transform="translate(184.619141 0)"/>
      </g>
     </g>
    </g>
    <g id="ytick_2">
     <g id="line2d_13">
      <path d="M 51.246563 151.446224 
L 419.526562 151.446224 
" clip-path="url(#pc082e6ec66)" style="fill: none; stroke: #b0b0b0; stroke-opacity: 0.25; stroke-width: 0.8; stroke-linecap: square"/>
     </g>
     <g id="line2d_14">
      <g>
       <use xlink:href="#m292d9bc897" x="51.246563" y="151.446224" style="stroke: #000000; stroke-width: 1.2"/>
      </g>
     </g>
     <g id="text_8">
      <!-- -0.01 -->
      <g transform="translate(22.203672 155.642943) scale(0.105 -0.105)">
       <use xlink:href="#MicrosoftYaHei-2d"/>
       <use xlink:href="#MicrosoftYaHei-30" transform="translate(43.261719 0)"/>
       <use xlink:href="#MicrosoftYaHei-2e" transform="translate(101.904297 0)"/>
       <use xlink:href="#MicrosoftYaHei-30" transform="translate(125.976562 0)"/>
       <use xlink:href="#MicrosoftYaHei-31" transform="translate(184.619141 0)"/>
      </g>
     </g>
    </g>
    <g id="ytick_3">
     <g id="line2d_15">
      <path d="M 51.246563 112.545213 
L 419.526562 112.545213 
" clip-path="url(#pc082e6ec66)" style="fill: none; stroke: #b0b0b0; stroke-opacity: 0.25; stroke-width: 0.8; stroke-linecap: square"/>
     </g>
     <g id="line2d_16">
      <g>
       <use xlink:href="#m292d9bc897" x="51.246563" y="112.545213" style="stroke: #000000; stroke-width: 1.2"/>
      </g>
     </g>
     <g id="text_9">
      <!-- 0.00 -->
      <g transform="translate(26.746563 116.741932) scale(0.105 -0.105)">
       <use xlink:href="#MicrosoftYaHei-30"/>
       <use xlink:href="#MicrosoftYaHei-2e" transform="translate(58.642578 0)"/>
       <use xlink:href="#MicrosoftYaHei-30" transform="translate(82.714844 0)"/>
       <use xlink:href="#MicrosoftYaHei-30" transform="translate(141.357422 0)"/>
      </g>
     </g>
    </g>
    <g id="ytick_4">
     <g id="line2d_17">
      <path d="M 51.246563 73.644202 
L 419.526562 73.644202 
" clip-path="url(#pc082e6ec66)" style="fill: none; stroke: #b0b0b0; stroke-opacity: 0.25; stroke-width: 0.8; stroke-linecap: square"/>
     </g>
     <g id="line2d_18">
      <g>
       <use xlink:href="#m292d9bc897" x="51.246563" y="73.644202" style="stroke: #000000; stroke-width: 1.2"/>
      </g>
     </g>
     <g id="text_10">
      <!-- 0.01 -->
      <g transform="translate(26.746563 77.840921) scale(0.105 -0.105)">
       <use xlink:href="#MicrosoftYaHei-30"/>
       <use xlink:href="#MicrosoftYaHei-2e" transform="translate(58.642578 0)"/>
       <use xlink:href="#MicrosoftYaHei-30" transform="translate(82.714844 0)"/>
       <use xlink:href="#MicrosoftYaHei-31" transform="translate(141.357422 0)"/>
      </g>
     </g>
    </g>
    <g id="ytick_5">
     <g id="line2d_19">
      <path d="M 51.246563 34.743191 
L 419.526562 34.743191 
" clip-path="url(#pc082e6ec66)" style="fill: none; stroke: #b0b0b0; stroke-opacity: 0.25; stroke-width: 0.8; stroke-linecap: square"/>
     </g>
     <g id="line2d_20">
      <g>
       <use xlink:href="#m292d9bc897" x="51.246563" y="34.743191" style="stroke: #000000; stroke-width: 1.2"/>
      </g>
     </g>
     <g id="text_11">
      <!-- 0.02 -->
      <g transform="translate(26.746563 38.93991) scale(0.105 -0.105)">
       <use xlink:href="#MicrosoftYaHei-30"/>
       <use xlink:href="#MicrosoftYaHei-2e" transform="translate(58.642578 0)"/>
       <use xlink:href="#MicrosoftYaHei-30" transform="translate(82.714844 0)"/>
       <use xlink:href="#MicrosoftYaHei-32" transform="translate(141.357422 0)"/>
      </g>
     </g>
    </g>
    <g id="text_12">
     <!-- Control Term (FCS native) -->
     <g transform="translate(15.593438 176.250492) rotate(-90) scale(0.105 -0.105)">
      <defs>
       <path id="MicrosoftYaHei-43" d="M 3938 200 
Q 3403 -81 2597 -81 
Q 1556 -81 934 580 
Q 313 1241 313 2328 
Q 313 3497 1013 4209 
Q 1713 4922 2791 4922 
Q 3484 4922 3938 4725 
L 3938 4072 
Q 3419 4359 2797 4359 
Q 1988 4359 1478 3820 
Q 969 3281 969 2366 
Q 969 1497 1444 986 
Q 1919 475 2688 475 
Q 3406 475 3938 800 
L 3938 200 
z
" transform="scale(0.015625)"/>
       <path id="MicrosoftYaHei-6f" d="M 316 1691 
Q 316 2547 794 3042 
Q 1272 3538 2091 3538 
Q 2869 3538 3311 3061 
Q 3753 2584 3753 1744 
Q 3753 925 3281 422 
Q 2809 -81 2016 -81 
Q 1241 -81 778 406 
Q 316 894 316 1691 
z
M 941 1709 
Q 941 1113 1242 769 
Q 1544 425 2053 425 
Q 2578 425 2853 761 
Q 3128 1097 3128 1725 
Q 3128 2356 2853 2693 
Q 2578 3031 2053 3031 
Q 1538 3031 1239 2678 
Q 941 2325 941 1709 
z
" transform="scale(0.015625)"/>
       <path id="MicrosoftYaHei-6e" d="M 3469 0 
L 2859 0 
L 2859 1966 
Q 2859 3031 2081 3031 
Q 1678 3031 1418 2731 
Q 1159 2431 1159 1972 
L 1159 0 
L 547 0 
L 547 3456 
L 1159 3456 
L 1159 2884 
L 1172 2884 
Q 1563 3538 2306 3538 
Q 2875 3538 3172 3173 
Q 3469 2809 3469 2113 
L 3469 0 
z
" transform="scale(0.015625)"/>
       <path id="MicrosoftYaHei-74" d="M 2206 34 
Q 2006 -75 1666 -75 
Q 738 -75 738 953 
L 738 2950 
L 144 2950 
L 144 3456 
L 738 3456 
L 738 4288 
L 1347 4481 
L 1347 3456 
L 2206 3456 
L 2206 2950 
L 1347 2950 
L 1347 1063 
Q 1347 722 1462 575 
Q 1578 428 1847 428 
Q 2053 428 2206 544 
L 2206 34 
z
" transform="scale(0.015625)"/>
       <path id="MicrosoftYaHei-72" d="M 2400 2850 
Q 2247 2959 1978 2959 
Q 1622 2959 1390 2626 
Q 1159 2294 1159 1750 
L 1159 0 
L 547 0 
L 547 3456 
L 1159 3456 
L 1159 2753 
L 1172 2753 
Q 1434 3516 2078 3516 
Q 2288 3516 2400 3469 
L 2400 2850 
z
" transform="scale(0.015625)"/>
       <path id="MicrosoftYaHei-6c" d="M 544 0 
L 544 5116 
L 1156 5116 
L 1156 0 
L 544 0 
z
" transform="scale(0.015625)"/>
       <path id="MicrosoftYaHei-46" d="M 3119 4284 
L 1250 4284 
L 1250 2666 
L 2981 2666 
L 2981 2116 
L 1250 2116 
L 1250 0 
L 625 0 
L 625 4841 
L 3119 4841 
L 3119 4284 
z
" transform="scale(0.015625)"/>
       <path id="MicrosoftYaHei-53" d="M 400 909 
Q 622 716 994 591 
Q 1366 466 1700 466 
Q 2719 466 2719 1191 
Q 2719 1394 2609 1556 
Q 2500 1719 2309 1844 
Q 2119 1969 1594 2228 
Q 866 2591 634 2902 
Q 403 3213 403 3613 
Q 403 4216 887 4569 
Q 1372 4922 2109 4922 
Q 2831 4922 3169 4747 
L 3169 4066 
Q 2731 4369 2063 4369 
Q 1619 4369 1339 4183 
Q 1059 3997 1059 3666 
Q 1059 3372 1253 3187 
Q 1447 3003 2094 2684 
Q 2806 2344 3090 2003 
Q 3375 1663 3375 1238 
Q 3375 600 2912 259 
Q 2450 -81 1628 -81 
Q 1341 -81 958 -1 
Q 575 78 400 197 
L 400 909 
z
" transform="scale(0.015625)"/>
       <path id="MicrosoftYaHei-61" d="M 628 3216 
Q 1144 3538 1819 3538 
Q 3069 3538 3069 2225 
L 3069 0 
L 2463 0 
L 2463 534 
L 2447 534 
Q 2088 -81 1388 -81 
Q 884 -81 587 191 
Q 291 463 291 925 
Q 291 1894 1438 2053 
L 2463 2197 
Q 2463 3044 1763 3044 
Q 1141 3044 628 2625 
L 628 3216 
z
M 1653 1625 
Q 1228 1569 1067 1412 
Q 906 1256 906 975 
Q 906 728 1081 572 
Q 1256 416 1544 416 
Q 1944 416 2203 697 
Q 2463 978 2463 1403 
L 2463 1734 
L 1653 1625 
z
" transform="scale(0.015625)"/>
       <path id="MicrosoftYaHei-76" d="M 3331 3456 
L 1963 0 
L 1344 0 
L 44 3456 
L 713 3456 
L 1556 988 
Q 1659 691 1678 491 
L 1694 491 
Q 1725 753 1803 975 
L 2688 3456 
L 3331 3456 
z
" transform="scale(0.015625)"/>
      </defs>
      <use xlink:href="#MicrosoftYaHei-43"/>
      <use xlink:href="#MicrosoftYaHei-6f" transform="translate(66.894531 0)"/>
      <use xlink:href="#MicrosoftYaHei-6e" transform="translate(130.46875 0)"/>
      <use xlink:href="#MicrosoftYaHei-74" transform="translate(192.089844 0)"/>
      <use xlink:href="#MicrosoftYaHei-72" transform="translate(229.345703 0)"/>
      <use xlink:href="#MicrosoftYaHei-6f" transform="translate(266.154297 0)"/>
      <use xlink:href="#MicrosoftYaHei-6c" transform="translate(329.728516 0)"/>
      <use xlink:href="#MicrosoftYaHei-20" transform="translate(356.339844 0)"/>
      <use xlink:href="#MicrosoftYaHei-54" transform="translate(385.929688 0)"/>
      <use xlink:href="#MicrosoftYaHei-65" transform="translate(432.128906 0)"/>
      <use xlink:href="#MicrosoftYaHei-72" transform="translate(488.867188 0)"/>
      <use xlink:href="#MicrosoftYaHei-6d" transform="translate(526.800781 0)"/>
      <use xlink:href="#MicrosoftYaHei-20" transform="translate(620.501953 0)"/>
      <use xlink:href="#MicrosoftYaHei-28" transform="translate(650.091797 0)"/>
      <use xlink:href="#MicrosoftYaHei-46" transform="translate(683.490234 0)"/>
      <use xlink:href="#MicrosoftYaHei-43" transform="translate(736.615234 0)"/>
      <use xlink:href="#MicrosoftYaHei-53" transform="translate(803.509766 0)"/>
      <use xlink:href="#MicrosoftYaHei-20" transform="translate(861.224609 0)"/>
      <use xlink:href="#MicrosoftYaHei-6e" transform="translate(890.814453 0)"/>
      <use xlink:href="#MicrosoftYaHei-61" transform="translate(952.435547 0)"/>
      <use xlink:href="#MicrosoftYaHei-74" transform="translate(1007.708984 0)"/>
      <use xlink:href="#MicrosoftYaHei-69" transform="translate(1044.964844 0)"/>
      <use xlink:href="#MicrosoftYaHei-76" transform="translate(1071.576172 0)"/>
      <use xlink:href="#MicrosoftYaHei-65" transform="translate(1123.441406 0)"/>
      <use xlink:href="#MicrosoftYaHei-29" transform="translate(1180.179688 0)"/>
     </g>
    </g>
   </g>
   <g id="line2d_21">
    <path d="M 67.986563 112.545213 
L 117.108256 112.531329 
L 117.741368 99.572776 
L 120.504107 99.558892 
L 121.407266 99.558892 
L 121.700568 86.600338 
L 123.500137 86.614223 
L 123.819693 99.572776 
L 125.986827 99.600545 
L 126.307134 138.501556 
L 126.919992 151.460106 
L 127.820901 151.473993 
L 128.123955 125.531534 
L 129.968532 125.540216 
L 130.258083 138.503973 
L 132.066653 138.50917 
L 132.355454 151.467718 
L 135.506762 151.4521 
L 135.803064 138.49355 
L 136.101617 138.490088 
L 137.02278 99.575193 
L 137.330334 99.575193 
L 137.631138 86.61664 
L 138.82985 86.60276 
L 139.138904 73.632055 
L 140.036813 73.632055 
L 140.329365 60.65788 
L 140.615916 99.56236 
L 141.818379 99.545007 
L 142.138685 86.586453 
L 143.953256 86.579506 
L 144.577367 73.614017 
L 146.667237 73.620951 
L 146.946286 86.586441 
L 147.544892 86.57257 
L 147.835193 125.487463 
L 148.418047 125.482266 
L 149.039907 138.440814 
L 149.62276 138.452969 
L 149.947567 151.408041 
L 150.888984 151.428869 
L 151.198039 164.404769 
L 152.480015 164.41866 
L 152.772567 177.391096 
L 153.402679 138.490088 
L 154.339595 138.50917 
L 154.952453 151.467718 
L 157.100833 151.47641 
L 158.295795 99.616846 
L 158.591347 99.602963 
L 159.22746 86.64961 
L 160.13212 86.64961 
L 161.37584 21.81588 
L 162.012702 21.81588 
L 162.632312 47.742725 
L 162.922613 47.740979 
L 163.543723 34.782437 
L 163.833275 34.768539 
L 164.14683 73.669549 
L 164.447633 60.710992 
L 166.893816 60.686693 
L 167.493922 112.534109 
L 168.428588 112.528914 
L 169.331748 125.47358 
L 169.633301 125.480516 
L 169.933354 177.340078 
L 170.52896 177.319261 
L 170.81551 190.277811 
L 171.448622 164.33535 
L 172.026975 164.32667 
L 172.324777 177.293907 
L 173.226437 177.300842 
L 173.515238 190.259392 
L 174.391393 190.275014 
L 174.684695 203.233563 
L 174.987749 203.249171 
L 175.55785 164.355135 
L 175.866904 164.367283 
L 176.157206 177.325833 
L 177.958274 177.350135 
L 178.262828 164.391586 
L 178.550879 125.502723 
L 179.598815 125.506183 
L 180.175667 112.544166 
L 180.811779 60.701953 
L 181.087828 60.701953 
L 182.00299 47.743399 
L 182.294042 34.784849 
L 182.600846 34.784849 
L 182.892648 21.826292 
L 183.198702 60.727303 
L 183.505506 60.727303 
L 183.80856 47.75487 
L 184.43342 47.75487 
L 184.707969 34.79632 
L 185.611129 73.6817 
L 185.918683 73.683443 
L 186.211235 60.724886 
L 189.229019 60.683233 
L 189.541824 60.683233 
L 189.862881 112.5428 
L 190.791545 112.528914 
L 191.063844 125.487463 
L 191.949 125.487463 
L 192.263306 138.446017 
L 192.867163 138.432132 
L 193.155214 190.298635 
L 193.453767 190.298635 
L 193.741067 203.257192 
L 194.047122 164.356179 
L 194.94128 177.321674 
L 195.521883 177.321674 
L 195.821186 190.280223 
L 196.100235 190.280223 
L 196.69659 151.3931 
L 197.289195 164.351657 
L 199.963419 164.39331 
L 200.260471 151.448636 
L 200.560524 112.547626 
L 201.446431 112.566708 
L 201.749485 99.60816 
L 202.631641 99.616846 
L 203.237748 86.658293 
L 203.512297 47.750341 
L 204.110903 34.798733 
L 204.387702 60.741189 
L 204.979556 60.741189 
L 205.297613 47.782636 
L 205.891718 47.782636 
L 206.802379 34.810203 
L 207.09343 34.810203 
L 207.400985 73.697326 
L 207.998091 60.738769 
L 210.956614 60.697116 
L 211.55597 112.539337 
L 212.455379 112.528914 
L 212.749431 125.487463 
L 213.342036 164.388473 
L 213.93089 177.347027 
L 214.221942 177.347027 
L 214.499491 190.291694 
L 214.796544 151.390684 
L 215.086095 164.356179 
L 215.674199 164.349237 
L 216.275805 177.307791 
L 216.888664 177.307791 
L 217.184216 190.273289 
L 217.48577 190.26634 
L 218.387429 151.384427 
L 218.679981 151.384427 
L 219.271836 164.358617 
L 221.081156 164.36554 
L 221.377458 151.406983 
L 221.66926 151.406983 
L 221.970813 112.51986 
L 222.260365 112.51986 
L 222.863471 99.561308 
L 224.052432 99.576921 
L 224.200208 86.61664 
L 224.810066 86.630523 
L 225.460431 73.671973 
L 225.73948 73.671973 
L 226.354589 60.727303 
L 226.670395 60.722096 
L 226.988451 47.768753 
L 227.615562 47.768753 
L 227.906614 34.810203 
L 228.520222 34.824086 
L 228.84353 73.725096 
L 229.143583 73.732045 
L 229.727186 60.766543 
L 233.004516 60.738769 
L 233.312821 99.639779 
L 233.64888 112.598336 
L 234.55579 112.586196 
L 234.874597 125.544747 
L 235.178401 125.529133 
L 235.478454 164.430134 
L 235.765755 177.388683 
L 236.071059 177.388683 
L 236.687668 190.33335 
L 236.986971 190.33335 
L 237.281773 164.39089 
L 238.16693 164.377007 
L 238.457981 177.335557 
L 239.079091 177.339035 
L 239.376144 190.280223 
L 239.680697 190.28544 
L 240.288305 151.379213 
L 240.886161 151.379213 
L 241.479516 164.323884 
L 242.742739 164.330836 
L 243.372851 151.372279 
L 244.615821 151.379213 
L 245.245182 112.478203 
L 246.157344 99.533538 
L 246.458147 99.533538 
L 247.697366 86.587131 
L 248.33873 73.644203 
L 248.650785 73.644203 
L 249.589951 47.742725 
L 250.520866 47.75487 
L 250.823919 34.810203 
L 251.756334 34.815413 
L 252.050387 60.757876 
L 253.592659 60.766543 
L 254.534076 47.821872 
L 255.143934 47.821872 
L 255.455989 60.780422 
L 256.060596 60.766543 
L 256.356899 99.6606 
L 256.966006 99.667553 
L 257.27131 112.619157 
L 257.89242 112.612223 
L 258.182722 125.570771 
L 258.491026 164.4579 
L 258.800081 164.4579 
L 259.100884 177.41645 
L 259.713743 177.402567 
L 260.011545 151.460106 
L 260.624404 151.446223 
L 260.921456 164.39089 
L 261.532065 164.39089 
L 262.135921 177.339035 
L 262.443476 177.335557 
L 262.760782 190.294107 
L 263.366139 190.280223 
L 263.650439 203.238781 
L 263.950492 203.238781 
L 264.272299 164.33777 
L 265.483764 164.323884 
L 265.797319 177.289386 
L 266.698979 177.282437 
L 266.995281 164.323884 
L 267.599138 125.422874 
L 268.502298 125.415918 
L 269.144412 112.457371 
L 269.438464 73.571983 
L 269.723514 60.61343 
L 270.163092 60.618643 
L 270.481148 47.673977 
L 271.094007 47.673977 
L 271.402311 34.715427 
L 272.006918 60.671766 
L 272.63778 60.68565 
L 273.547691 47.740979 
L 274.1628 34.782437 
L 274.454601 34.79632 
L 274.743403 73.697326 
L 275.657814 73.711213 
L 275.966119 60.752656 
L 278.012481 60.766543 
L 278.600585 73.725096 
L 278.842128 112.626106 
L 279.353718 112.626106 
L 279.491743 125.584654 
L 279.64477 125.584654 
L 279.791796 138.550155 
L 279.841305 138.543209 
L 279.881812 151.501763 
L 279.967327 151.487876 
L 280.015336 151.487876 
L 280.058843 164.44643 
L 280.15186 164.432543 
L 280.197618 164.432543 
L 280.236625 177.391096 
L 280.32589 177.377213 
L 280.376149 177.377213 
L 280.417407 190.335763 
L 280.505922 190.321873 
L 280.593688 190.321873 
L 280.640946 203.264793 
L 280.779721 164.351657 
L 281.403831 164.323884 
L 281.546356 125.422874 
L 281.587614 125.408994 
L 281.721888 112.450437 
L 281.810403 112.450437 
L 282.164466 34.680712 
L 282.205723 34.680712 
L 282.30024 73.60255 
L 282.345248 60.643997 
L 282.474271 60.649199 
L 282.608544 47.69933 
L 282.710562 47.713213 
L 282.81108 34.754663 
L 282.856088 34.768546 
L 283.001614 73.669549 
L 283.099131 60.723143 
L 283.144139 60.724886 
L 283.808757 60.747442 
L 283.948282 112.601793 
L 284.098308 112.612223 
L 284.231082 125.570771 
L 284.376607 125.570771 
L 284.56189 151.477464 
L 284.715667 151.473993 
L 284.810934 164.432543 
L 284.865694 164.41866 
L 284.907701 164.41866 
L 285.002968 177.377213 
L 285.058478 177.36333 
L 285.103486 177.36333 
L 285.250512 190.32188 
L 285.388536 190.30799 
L 285.539313 164.363787 
L 286.290196 164.33777 
L 286.430471 125.43676 
L 286.569996 112.478203 
L 286.666012 112.478203 
L 286.805537 99.519655 
L 286.849045 99.524865 
L 287.226362 21.75687 
L 287.278121 21.75687 
L 287.377138 60.65788 
L 287.518163 47.695866 
L 287.570673 47.713213 
L 287.701946 34.754663 
L 287.794962 34.768546 
L 287.884978 21.809996 
L 288.035755 60.724886 
L 288.717626 60.752656 
L 288.860901 99.653666 
L 288.962169 112.612223 
L 289.011678 112.60701 
L 289.108445 112.619157 
L 289.394245 177.437274 
L 289.447505 177.444216 
L 289.497764 138.543209 
L 289.553273 151.501763 
L 289.696549 151.487876 
L 289.748308 164.451632 
L 289.845825 164.44643 
L 289.890833 164.432543 
L 290.04386 177.39456 
L 290.081367 177.391096 
L 290.124124 190.337495 
L 290.223142 190.335763 
L 290.313158 190.335763 
L 290.365667 203.28043 
L 290.514194 164.379409 
L 291.301083 164.33777 
L 291.446609 125.43676 
L 291.579382 112.46432 
L 291.630391 112.46432 
L 291.855431 47.646203 
L 291.946947 47.653152 
L 291.993455 47.653152 
L 292.13373 34.687653 
L 292.18849 34.687653 
L 292.286007 21.729103 
L 292.371522 60.630114 
L 292.422531 47.671564 
L 292.572558 47.685447 
L 292.711332 34.716499 
L 292.838855 34.73386 
L 292.895865 73.638327 
L 292.97913 60.683233 
L 293.521476 60.724886 
L 294.622671 60.738769 
L 295.252032 112.612223 
L 296.174695 112.60701 
L 296.497252 125.584654 
L 297.118362 125.584654 
L 297.733471 177.444216 
L 298.047777 177.437274 
L 298.362082 190.402773 
L 298.986193 190.395831 
L 299.301999 164.465523 
L 299.943362 164.453375 
L 300.278672 177.418863 
L 300.593727 177.411928 
L 301.205085 190.37742 
L 301.51264 190.363537 
L 302.159254 203.322094 
L 302.466059 203.322094 
L 303.086418 164.407193 
L 303.408976 164.407193 
L 303.71503 177.35186 
L 305.539353 177.324094 
L 305.836405 164.36554 
L 306.460516 125.450647 
L 307.068873 125.450647 
L 307.379428 112.495568 
L 307.684732 112.483417 
L 308.144564 60.618643 
L 308.773925 60.61343 
L 309.075478 47.646203 
L 309.392784 47.646203 
L 310.677762 60.630114 
L 311.335628 60.630114 
L 311.639432 47.664629 
L 313.247717 34.72689 
L 313.589777 73.627903 
L 314.559699 60.686693 
L 317.421455 60.735291 
L 317.726759 112.594858 
L 318.029063 112.594858 
L 319.299788 125.570771 
L 319.610343 125.584654 
L 320.247956 138.543209 
L 322.172796 164.460313 
L 322.508856 164.460313 
L 324.438197 190.384347 
L 324.751753 190.37742 
L 325.055556 203.342897 
L 325.69542 164.426264 
L 326.928638 164.410649 
L 328.204614 177.35186 
L 328.510668 164.39331 
L 329.140029 164.379423 
L 329.439332 125.478413 
L 330.063443 125.46453 
L 330.364996 112.505973 
L 331.301162 112.495568 
L 331.917021 60.618643 
L 332.551633 47.665296 
L 332.850936 47.646203 
L 333.160741 34.694595 
L 333.787102 21.729103 
L 334.087155 60.630114 
L 335.032322 47.671564 
L 335.64518 47.671564 
L 335.957236 34.713007 
L 336.258039 34.70608 
L 336.557342 73.614017 
L 337.176201 73.614017 
L 337.493508 60.669346 
L 340.905111 60.711003 
L 341.198413 112.570566 
L 342.387374 112.582711 
L 343.014485 125.553412 
L 343.628843 177.41645 
L 343.931147 177.41645 
L 344.241702 151.473993 
L 344.85231 151.487876 
L 345.183868 164.44643 
L 345.806479 164.44643 
L 346.119284 177.404979 
L 346.746395 177.410182 
L 347.379507 190.363537 
L 347.67881 151.462523 
L 349.523386 151.462523 
L 349.842193 164.42108 
L 350.4453 164.426264 
L 350.770107 151.467718 
L 352.049834 151.462523 
L 352.36939 112.561513 
L 353.009253 112.547626 
L 353.326559 99.589078 
L 354.300232 99.575193 
L 354.595034 86.61664 
L 355.375922 86.602749 
L 355.680476 73.63032 
L 356.639896 73.63032 
L 357.618069 60.65788 
L 357.927124 60.654416 
L 358.591741 47.685447 
L 359.257859 86.586453 
L 359.575165 86.586453 
L 360.207527 73.614017 
L 363.989697 73.627903 
L 364.613807 112.5428 
L 365.566476 125.501348 
L 365.902535 125.515233 
L 366.548399 138.473787 
L 367.51082 138.48767 
L 367.824375 151.446223 
L 368.75679 151.458371 
L 369.407155 164.41866 
L 370.341821 177.39456 
L 370.975683 138.490088 
L 371.643301 151.462523 
L 376.030077 151.47641 
L 376.94899 99.59776 
L 377.561848 99.59776 
L 377.849149 86.630523 
L 378.753059 86.61664 
L 379.066615 73.658086 
L 379.692225 73.644203 
L 380.007281 60.68565 
L 380.890187 60.670035 
L 381.224747 47.711488 
L 382.177415 86.600338 
L 382.468467 86.600338 
L 382.755768 73.64179 
L 387.453849 73.614017 
L 387.762904 112.515027 
L 388.063707 125.47358 
L 389.291674 125.487463 
L 389.599979 138.446017 
L 390.205336 138.446017 
L 390.51064 151.418453 
L 391.432553 151.418453 
L 392.062665 164.39089 
L 392.37622 164.39089 
L 392.679274 177.349447 
L 393.315386 177.363323 
L 393.921494 138.477931 
L 394.219296 151.434753 
L 397.269336 151.47641 
L 398.834863 151.47641 
L 399.082407 99.616846 
L 400.181351 99.616846 
L 400.482905 86.658293 
L 401.107015 86.658293 
L 401.542842 73.685856 
L 402.466256 73.675447 
L 402.786562 60.709945 
L 402.786562 60.709945 
" clip-path="url(#pc082e6ec66)" style="fill: none; stroke: #334155; stroke-width: 2.8; stroke-linecap: square"/>
   </g>
   <g id="line2d_22">
    <path d="M 67.986563 112.545213 
L 402.786562 112.545213 
L 402.786562 112.545213 
" clip-path="url(#pc082e6ec66)" style="fill: none; stroke-dasharray: 10.36,4.48; stroke-dashoffset: 0; stroke: #b45309; stroke-width: 2.8"/>
   </g>
   <g id="line2d_23">
    <path d="M 67.986563 112.545213 
L 402.786562 112.545213 
L 402.786562 112.545213 
" clip-path="url(#pc082e6ec66)" style="fill: none; stroke-dasharray: 17.92,4.48,2.8,4.48; stroke-dashoffset: 0; stroke: #1d4ed8; stroke-width: 2.8"/>
   </g>
   <g id="line2d_24">
    <path d="M 67.986563 112.545213 
L 402.786562 112.545213 
L 402.786562 112.545213 
" clip-path="url(#pc082e6ec66)" style="fill: none; stroke-dasharray: 2.8,4.62; stroke-dashoffset: 0; stroke: #047857; stroke-width: 2.8"/>
   </g>
   <g id="patch_3">
    <path d="M 51.246563 217.872 
L 51.246563 7.2 
" style="fill: none; stroke: #000000; stroke-width: 1.4; stroke-linejoin: miter; stroke-linecap: square"/>
   </g>
   <g id="patch_4">
    <path d="M 419.526562 217.872 
L 419.526562 7.2 
" style="fill: none; stroke: #000000; stroke-width: 1.4; stroke-linejoin: miter; stroke-linecap: square"/>
   </g>
   <g id="patch_5">
    <path d="M 51.246563 217.872 
L 419.526562 217.872 
" style="fill: none; stroke: #000000; stroke-width: 1.4; stroke-linejoin: miter; stroke-linecap: square"/>
   </g>
   <g id="patch_6">
    <path d="M 51.246563 7.2 
L 419.526562 7.2 
" style="fill: none; stroke: #000000; stroke-width: 1.4; stroke-linejoin: miter; stroke-linecap: square"/>
   </g>
   <g id="text_13">
    <g id="patch_7">
     <path d="M 73.986563 108.075213 
L 107.476563 108.075213 
Q 109.006563 108.075213 109.006563 106.545213 
L 109.006563 97.637479 
Q 109.006563 96.107479 107.476563 96.107479 
L 73.986563 96.107479 
Q 72.456563 96.107479 72.456563 97.637479 
L 72.456563 106.545213 
Q 72.456563 108.075213 73.986563 108.075213 
z
" style="fill: #ffffff; opacity: 0.85; stroke: #b45309; stroke-width: 0.8; stroke-linejoin: miter"/>
    </g>
    <!-- P=0.000 -->
    <g style="fill: #b45309" transform="translate(73.986563 104.432166) scale(0.085 -0.085)">
     <defs>
      <path id="MicrosoftYaHei-50" d="M 1250 1809 
L 1250 0 
L 625 0 
L 625 4841 
L 2000 4841 
Q 2784 4841 3217 4462 
Q 3650 4084 3650 3381 
Q 3650 2669 3144 2226 
Q 2638 1784 1878 1809 
L 1250 1809 
z
M 1250 4291 
L 1250 2359 
L 1828 2359 
Q 2400 2359 2697 2617 
Q 2994 2875 2994 3356 
Q 2994 4291 1888 4291 
L 1250 4291 
z
" transform="scale(0.015625)"/>
      <path id="MicrosoftYaHei-3d" d="M 3972 2497 
L 788 2497 
L 788 2969 
L 3972 2969 
L 3972 2497 
z
M 3972 1053 
L 788 1053 
L 788 1525 
L 3972 1525 
L 3972 1053 
z
" transform="scale(0.015625)"/>
     </defs>
     <use xlink:href="#MicrosoftYaHei-50"/>
     <use xlink:href="#MicrosoftYaHei-3d" transform="translate(61.181641 0)"/>
     <use xlink:href="#MicrosoftYaHei-30" transform="translate(135.351562 0)"/>
     <use xlink:href="#MicrosoftYaHei-2e" transform="translate(193.994141 0)"/>
     <use xlink:href="#MicrosoftYaHei-30" transform="translate(218.066406 0)"/>
     <use xlink:href="#MicrosoftYaHei-30" transform="translate(276.708984 0)"/>
     <use xlink:href="#MicrosoftYaHei-30" transform="translate(335.351562 0)"/>
    </g>
   </g>
   <g id="text_14">
    <g id="patch_8">
     <path d="M 408.786562 108.075213 
L 439.573828 108.075213 
Q 441.103828 108.075213 441.103828 106.545213 
L 441.103828 97.637479 
Q 441.103828 96.107479 439.573828 96.107479 
L 408.786562 96.107479 
Q 407.256562 96.107479 407.256562 97.637479 
L 407.256562 106.545213 
Q 407.256562 108.075213 408.786562 108.075213 
z
" style="fill: #ffffff; opacity: 0.85; stroke: #1d4ed8; stroke-width: 0.8; stroke-linejoin: miter"/>
    </g>
    <!-- I=0.000 -->
    <g style="fill: #1d4ed8" transform="translate(408.786562 104.432166) scale(0.085 -0.085)">
     <defs>
      <path id="MicrosoftYaHei-49" d="M 1250 4841 
L 1250 0 
L 625 0 
L 625 4841 
L 1250 4841 
z
" transform="scale(0.015625)"/>
     </defs>
     <use xlink:href="#MicrosoftYaHei-49"/>
     <use xlink:href="#MicrosoftYaHei-3d" transform="translate(29.394531 0)"/>
     <use xlink:href="#MicrosoftYaHei-30" transform="translate(103.564453 0)"/>
     <use xlink:href="#MicrosoftYaHei-2e" transform="translate(162.207031 0)"/>
     <use xlink:href="#MicrosoftYaHei-30" transform="translate(186.279297 0)"/>
     <use xlink:href="#MicrosoftYaHei-30" transform="translate(244.921875 0)"/>
     <use xlink:href="#MicrosoftYaHei-30" transform="translate(303.564453 0)"/>
    </g>
   </g>
   <g id="legend_1">
    <g id="line2d_25">
     <path d="M 431.092163 16.118438 
L 441.592163 16.118438 
L 452.092163 16.118438 
" style="fill: none; stroke: #334155; stroke-width: 2.8; stroke-linecap: square"/>
    </g>
    <g id="text_15">
     <!-- Vx Delta -->
     <g transform="translate(460.492163 19.793438) scale(0.105 -0.105)">
      <defs>
       <path id="MicrosoftYaHei-56" d="M 4272 4841 
L 2494 0 
L 1800 0 
L 56 4841 
L 750 4841 
L 2053 1056 
Q 2119 869 2150 622 
L 2166 622 
Q 2191 838 2275 1063 
L 3603 4841 
L 4272 4841 
z
" transform="scale(0.015625)"/>
       <path id="MicrosoftYaHei-78" d="M 3163 3456 
L 2006 1716 
L 3147 0 
L 2434 0 
L 1775 1100 
Q 1722 1188 1625 1369 
L 1613 1369 
Q 1609 1350 1456 1100 
L 784 0 
L 81 0 
L 1256 1697 
L 134 3456 
L 847 3456 
L 1494 2300 
Q 1553 2194 1638 2025 
L 1650 2025 
L 2491 3456 
L 3163 3456 
z
" transform="scale(0.015625)"/>
       <path id="MicrosoftYaHei-44" d="M 625 0 
L 625 4841 
L 2006 4841 
Q 3106 4841 3836 4200 
Q 4566 3559 4566 2481 
Q 4566 1356 3836 678 
Q 3106 0 1956 0 
L 625 0 
z
M 1250 4284 
L 1250 553 
L 1953 553 
Q 2875 553 3392 1056 
Q 3909 1559 3909 2466 
Q 3909 3372 3378 3828 
Q 2847 4284 1981 4284 
L 1250 4284 
z
" transform="scale(0.015625)"/>
      </defs>
      <use xlink:href="#MicrosoftYaHei-56"/>
      <use xlink:href="#MicrosoftYaHei-78" transform="translate(67.626953 0)"/>
      <use xlink:href="#MicrosoftYaHei-20" transform="translate(118.310547 0)"/>
      <use xlink:href="#MicrosoftYaHei-44" transform="translate(147.900391 0)"/>
      <use xlink:href="#MicrosoftYaHei-65" transform="translate(224.072266 0)"/>
      <use xlink:href="#MicrosoftYaHei-6c" transform="translate(280.810547 0)"/>
      <use xlink:href="#MicrosoftYaHei-74" transform="translate(307.421875 0)"/>
      <use xlink:href="#MicrosoftYaHei-61" transform="translate(344.677734 0)"/>
     </g>
    </g>
    <g id="line2d_26">
     <path d="M 431.092163 32.372109 
L 441.592163 32.372109 
L 452.092163 32.372109 
" style="fill: none; stroke-dasharray: 10.36,4.48; stroke-dashoffset: 0; stroke: #b45309; stroke-width: 2.8"/>
    </g>
    <g id="text_16">
     <!-- Vx P -->
     <g transform="translate(460.492163 36.047109) scale(0.105 -0.105)">
      <use xlink:href="#MicrosoftYaHei-56"/>
      <use xlink:href="#MicrosoftYaHei-78" transform="translate(67.626953 0)"/>
      <use xlink:href="#MicrosoftYaHei-20" transform="translate(118.310547 0)"/>
      <use xlink:href="#MicrosoftYaHei-50" transform="translate(147.900391 0)"/>
     </g>
    </g>
    <g id="line2d_27">
     <path d="M 523.487241 16.118438 
L 533.987241 16.118438 
L 544.487241 16.118438 
" style="fill: none; stroke-dasharray: 17.92,4.48,2.8,4.48; stroke-dashoffset: 0; stroke: #1d4ed8; stroke-width: 2.8"/>
    </g>
    <g id="text_17">
     <!-- Vx Int -->
     <g transform="translate(552.887241 19.793438) scale(0.105 -0.105)">
      <use xlink:href="#MicrosoftYaHei-56"/>
      <use xlink:href="#MicrosoftYaHei-78" transform="translate(67.626953 0)"/>
      <use xlink:href="#MicrosoftYaHei-20" transform="translate(118.310547 0)"/>
      <use xlink:href="#MicrosoftYaHei-49" transform="translate(147.900391 0)"/>
      <use xlink:href="#MicrosoftYaHei-6e" transform="translate(177.294922 0)"/>
      <use xlink:href="#MicrosoftYaHei-74" transform="translate(238.916016 0)"/>
     </g>
    </g>
    <g id="line2d_28">
     <path d="M 523.487241 32.372109 
L 533.987241 32.372109 
L 544.487241 32.372109 
" style="fill: none; stroke-dasharray: 2.8,4.62; stroke-dashoffset: 0; stroke: #047857; stroke-width: 2.8"/>
    </g>
    <g id="text_18">
     <!-- Vx D -->
     <g transform="translate(552.887241 36.047109) scale(0.105 -0.105)">
      <use xlink:href="#MicrosoftYaHei-56"/>
      <use xlink:href="#MicrosoftYaHei-78" transform="translate(67.626953 0)"/>
      <use xlink:href="#MicrosoftYaHei-20" transform="translate(118.310547 0)"/>
      <use xlink:href="#MicrosoftYaHei-44" transform="translate(147.900391 0)"/>
     </g>
    </g>
   </g>
  </g>
 </g>
 <defs>
  <clipPath id="pc082e6ec66">
   <rect x="51.246563" y="7.2" width="368.28" height="210.672"/>
  </clipPath>
 </defs>
</svg>
